<?xml version="1.0" standalone="no"?>
<!DOCTYPE svg PUBLIC "-//W3C//DTD SVG 20010904//EN"
 "http://www.w3.org/TR/2001/REC-SVG-20010904/DTD/svg10.dtd">
<svg version="1.0" xmlns="http://www.w3.org/2000/svg"
 width="139.000000pt" height="139.000000pt" viewBox="0 0 139.000000 139.000000"
 preserveAspectRatio="xMidYMid meet">
<metadata>
Created by potrace 1.11, written by Peter Selinger 2001-2013
</metadata>
<g transform="translate(0.000000,139.000000) scale(0.100000,-0.100000)"
fill="#000000" stroke="none">
<path d="M880 1178 l-150 -150 0 -149 0 -149 151 0 151 0 149 149 148 149
-149 150 -149 150 -151 -150z"/>
<path d="M212 509 l-150 -151 72 -71 c40 -40 107 -107 150 -150 l77 -78 149
150 150 150 0 149 0 150 -149 0 -149 1 -150 -150z"/>
<path d="M730 510 l0 -149 150 -151 149 -150 150 149 150 150 -150 150 -150
151 -149 -1 -150 0 0 -149z"/>
</g>
</svg>
